# xmcd
#
# Track frame offsets:
#	150
#	18375
#	41232
#	60205
#	78838
#	104075
#	121476
#	139001
#	161470
#	181903
#	204932
#	227909
#	244398
#	261527
#	285432
#	303657
#
# Disc length: 4268 seconds
#
# Revision: 1
# Processed by: cddbd v1.5.2PL0 Copyright (c) Steve Scherf et al.
# Submitted via: audiograbber 1.81.03
#
DISCID=e010aa10
DTITLE=Robin`Hawkins Band - Bluesberry Jam
DYEAR=2007
DGENRE=Blues
TTITLE0=One
TTITLE1=Two
TTITLE2=Three
TTITLE3=Four
TTITLE4=Five
TTITLE5=Six
TTITLE6=Seven
TTITLE7=Eight
TTITLE8=Nine
TTITLE9=Ten
TTITLE10=Eleven
TTITLE11=Twelve
TTITLE12=Thirteen
TTITLE13=Fourteen
TTITLE14=Fifteen
TTITLE15=Sixteen
EXTD=
EXTT0=
EXTT1=
EXTT2=
EXTT3=
EXTT4=
EXTT5=
EXTT6=
EXTT7=
EXTT8=
EXTT9=
EXTT10=
EXTT11=
EXTT12=
EXTT13=
EXTT14=
EXTT15=
PLAYORDER=
